<svg width="177" height="47" viewBox="0 0 177 47" fill="none" xmlns="http://www.w3.org/2000/svg">
<path d="M60.1129 33.8463C59.3154 33.8897 58.5265 33.6626 57.8736 33.2017C57.6009 32.9992 57.3814 32.7332 57.2341 32.4268C57.0869 32.1202 57.0165 31.7825 57.0289 31.4426V18.9943C57.0224 18.9417 57.0279 18.8881 57.0452 18.8379C57.0624 18.7876 57.0908 18.7421 57.1283 18.7045C57.1659 18.6669 57.2113 18.6384 57.2615 18.6213C57.3116 18.6039 57.3652 18.5984 57.4177 18.6049H59.6704C59.9252 18.6049 60.0459 18.7392 60.0459 18.9943V30.4757C60.0459 30.986 60.2739 31.2412 60.7432 31.2412C60.9422 31.2494 61.1412 31.2268 61.3332 31.174C61.6014 31.174 61.7489 31.2546 61.7623 31.4963L61.9634 33.1749C61.9731 33.2239 61.9721 33.2742 61.9607 33.3229C61.9493 33.3713 61.9276 33.417 61.897 33.4563C61.8666 33.4958 61.828 33.5283 61.784 33.5515C61.7399 33.5748 61.6913 33.5883 61.6416 33.5912C61.1481 33.7545 60.6325 33.8405 60.1129 33.8463Z" fill="black"/>
<path d="M72.7845 32.4094C71.6527 33.3461 70.2301 33.8584 68.7618 33.8584C67.2935 33.8584 65.8711 33.3461 64.7391 32.4094C63.7443 31.4036 63.186 30.0451 63.186 28.6293C63.186 27.2135 63.7443 25.855 64.7391 24.8492C65.8732 23.9174 67.2948 23.4081 68.7618 23.4081C70.2288 23.4081 71.6504 23.9174 72.7845 24.8492C73.7566 25.8642 74.2992 27.2162 74.2992 28.6226C74.2992 30.029 73.7566 31.381 72.7845 32.396V32.4094ZM66.8577 30.6369C67.3831 31.1135 68.0664 31.3773 68.7752 31.3773C69.484 31.3773 70.1675 31.1135 70.6927 30.6369C71.1682 30.0895 71.4299 29.3884 71.4299 28.6629C71.4299 27.9375 71.1682 27.2364 70.6927 26.6889C70.1675 26.2124 69.484 25.9484 68.7752 25.9484C68.0664 25.9484 67.3831 26.2124 66.8577 26.6889C66.3824 27.2364 66.1205 27.9375 66.1205 28.6629C66.1205 29.3884 66.3824 30.0895 66.8577 30.6369Z" fill="black"/>
<path d="M86.7032 23.748C86.9579 23.748 87.0786 23.8823 87.0786 24.1374V33.7657C87.1021 34.4157 86.9806 35.0625 86.7231 35.6594C86.4657 36.2565 86.0787 36.7885 85.5902 37.2169C84.5059 38.1428 83.1117 38.6226 81.6881 38.5597C80.4025 38.605 79.1339 38.2534 78.0543 37.5526C77.5933 37.2495 77.1995 36.8546 76.8973 36.3926C76.5951 35.9305 76.391 35.4113 76.2977 34.8669C76.2977 34.5983 76.2977 34.4774 76.6597 34.4774H78.9125C79.0081 34.4807 79.1009 34.5117 79.1793 34.5665C79.2579 34.6213 79.3189 34.6975 79.355 34.7863C79.5011 35.1941 79.7924 35.5337 80.1729 35.7397C80.6367 35.9794 81.153 36.0995 81.6747 36.0889C81.9896 36.1062 82.3047 36.0604 82.6017 35.9543C82.8987 35.8484 83.1716 35.684 83.4045 35.4712C83.6173 35.2485 83.7828 34.9849 83.8911 34.6965C83.9995 34.408 84.0483 34.1005 84.0347 33.7926V32.9466C83.2282 33.5407 82.2465 33.8479 81.2457 33.8194C80.5452 33.845 79.8468 33.7285 79.1923 33.477C78.538 33.2254 77.9411 32.8441 77.4375 32.3557C76.4708 31.3542 75.9304 30.0157 75.9304 28.6226C75.9304 27.2296 76.4708 25.8911 77.4375 24.8894C77.9435 24.4055 78.5412 24.0279 79.1951 23.7788C79.8492 23.5297 80.5464 23.4142 81.2457 23.4392C82.2755 23.4119 83.2836 23.739 84.1018 24.3657V24.1509C84.0956 24.0994 84.101 24.0472 84.1175 23.9981C84.134 23.949 84.1612 23.9042 84.1971 23.8669C84.2331 23.8295 84.2769 23.8008 84.3253 23.7825C84.3739 23.7643 84.4258 23.7571 84.4772 23.7614L86.7032 23.748ZM81.5004 31.4292C81.8458 31.4399 82.1895 31.3745 82.5069 31.2375C82.8243 31.1007 83.1079 30.8956 83.3375 30.6369C83.7833 30.0604 84.0252 29.3518 84.0252 28.6226C84.0252 27.8934 83.7833 27.1849 83.3375 26.6083C83.1087 26.3532 82.8269 26.1511 82.5119 26.0165C82.1968 25.8819 81.8562 25.8182 81.5138 25.8294C81.1644 25.8184 80.8168 25.8836 80.495 26.0204C80.1732 26.1572 79.8849 26.3624 79.65 26.6217C79.1561 27.1732 78.8964 27.8958 78.9259 28.636C78.9017 29.3689 79.1557 30.0839 79.6366 30.6369C79.872 30.8955 80.1605 31.1003 80.4821 31.237C80.8038 31.3737 81.1511 31.4392 81.5004 31.4292Z" fill="black"/>
<path d="M98.6507 32.4095C97.5166 33.3413 96.0949 33.8505 94.628 33.8505C93.161 33.8505 91.7394 33.3413 90.6053 32.4095C89.6324 31.3921 89.0894 30.038 89.0894 28.6293C89.0894 27.2208 89.6324 25.8665 90.6053 24.8492C91.7405 23.9198 93.1617 23.412 94.628 23.412C96.0943 23.412 97.5155 23.9198 98.6507 24.8492C99.6227 25.8642 100.165 27.2162 100.165 28.6226C100.165 30.029 99.6227 31.381 98.6507 32.396V32.4095ZM92.7105 30.6369C92.9675 30.8818 93.2706 31.0732 93.6021 31.1999C93.9335 31.3267 94.2867 31.3865 94.6414 31.3755C94.9938 31.3846 95.3446 31.3242 95.6736 31.1974C96.0027 31.0706 96.3035 30.8802 96.5589 30.6369C97.0266 30.0858 97.2834 29.3862 97.2834 28.6629C97.2834 27.9396 97.0266 27.24 96.5589 26.6889C96.3035 26.4457 96.0027 26.2551 95.6736 26.1285C95.3446 26.0017 94.9938 25.9412 94.6414 25.9503C94.2867 25.9394 93.9335 25.9991 93.6021 26.1258C93.2706 26.2526 92.9675 26.4441 92.7105 26.6889C92.2429 27.24 91.9861 27.9396 91.9861 28.6629C91.9861 29.3862 92.2429 30.0858 92.7105 30.6369Z" fill="black"/>
<path d="M105.007 21.4652C104.652 21.7759 104.197 21.9471 103.726 21.9471C103.255 21.9471 102.8 21.7759 102.445 21.4652C102.285 21.3133 102.157 21.1301 102.069 20.927C101.982 20.7238 101.937 20.5048 101.937 20.2835C101.937 20.0622 101.982 19.8433 102.069 19.64C102.157 19.4368 102.285 19.2536 102.445 19.1018C102.804 18.7988 103.257 18.6327 103.726 18.6327C104.195 18.6327 104.648 18.7988 105.007 19.1018C105.167 19.2536 105.295 19.4368 105.383 19.64C105.47 19.8433 105.515 20.0622 105.515 20.2835C105.515 20.5048 105.47 20.7238 105.383 20.927C105.295 21.1301 105.167 21.3133 105.007 21.4652ZM105.288 33.8463C104.491 33.8855 103.704 33.6589 103.049 33.2018C102.78 32.9963 102.565 32.7293 102.42 32.4233C102.275 32.1173 102.206 31.781 102.218 31.4426V24.1375C102.211 24.0848 102.217 24.0312 102.234 23.981C102.251 23.9308 102.279 23.8853 102.317 23.8477C102.355 23.8101 102.4 23.7816 102.45 23.7644C102.5 23.7471 102.554 23.7416 102.606 23.748H104.859C105.114 23.748 105.235 23.8823 105.235 24.1375V30.4758C105.235 30.986 105.463 31.2412 105.918 31.2412C106.122 31.2486 106.325 31.2259 106.522 31.174C106.79 31.174 106.938 31.2546 106.951 31.4963L107.152 33.1749C107.162 33.2239 107.161 33.2743 107.149 33.3229C107.138 33.3714 107.116 33.417 107.086 33.4564C107.055 33.4958 107.017 33.5283 106.973 33.5516C106.929 33.5748 106.88 33.5884 106.83 33.5912C106.332 33.7554 105.812 33.8415 105.288 33.8463Z" fill="black"/>
<path d="M115.439 23.4258C116.143 23.398 116.845 23.512 117.503 23.7611C118.162 24.0103 118.764 24.3894 119.274 24.876C120.222 25.8953 120.749 27.2364 120.749 28.6293C120.749 30.0223 120.222 31.3635 119.274 32.3826C118.767 32.8737 118.165 33.2565 117.506 33.5081C116.847 33.7597 116.144 33.8748 115.439 33.8463C114.435 33.8688 113.451 33.5623 112.636 32.9735V37.8212C112.636 38.0763 112.502 38.1972 112.247 38.1972H109.995C109.943 38.2069 109.89 38.2038 109.84 38.1883C109.791 38.1727 109.745 38.1454 109.708 38.1083C109.671 38.0712 109.644 38.0258 109.628 37.9757C109.613 37.9258 109.61 37.8728 109.619 37.8212V26.8098C109.635 26.7021 109.625 26.5922 109.591 26.4888C109.557 26.3855 109.499 26.2915 109.422 26.2146C109.346 26.1377 109.252 26.0798 109.149 26.0455C109.046 26.0113 108.936 26.0018 108.828 26.0175H108.386C108.091 26.0175 107.943 25.91 107.943 25.6952V24.1106C107.936 24.0126 107.963 23.9151 108.019 23.8345C108.075 23.7538 108.157 23.6949 108.252 23.6675C108.715 23.4987 109.206 23.4168 109.7 23.4258C110.192 23.3821 110.686 23.4867 111.118 23.7259C111.55 23.9652 111.902 24.3283 112.127 24.7686C112.559 24.3311 113.075 23.9864 113.645 23.7554C114.214 23.5246 114.825 23.4123 115.439 23.4258ZM113.347 30.6369C113.586 30.8872 113.873 31.0864 114.191 31.2224C114.509 31.3584 114.852 31.4285 115.197 31.4285C115.543 31.4285 115.886 31.3584 116.204 31.2224C116.522 31.0864 116.809 30.8872 117.048 30.6369C117.552 30.0744 117.816 29.3373 117.785 28.5823C117.821 27.8268 117.555 27.088 117.048 26.5278C116.809 26.2776 116.522 26.0784 116.204 25.9424C115.886 25.8062 115.543 25.7361 115.197 25.7361C114.852 25.7361 114.509 25.8062 114.191 25.9424C113.873 26.0784 113.586 26.2776 113.347 26.5278C112.859 27.0979 112.605 27.8321 112.636 28.5823C112.609 29.332 112.863 30.0648 113.347 30.6369Z" fill="black"/>
<path d="M127.078 33.8463C125.874 33.8959 124.681 33.6076 123.632 33.0137C123.211 32.7599 122.853 32.4144 122.583 32.003C122.314 31.5915 122.141 31.1246 122.076 30.6369C122.076 30.3683 122.17 30.234 122.465 30.234H124.436C124.53 30.2378 124.621 30.2672 124.699 30.3194C124.777 30.3715 124.839 30.4442 124.879 30.5295C125.16 31.2546 125.898 31.6172 127.078 31.6172C127.49 31.6361 127.899 31.553 128.271 31.3755C128.4 31.3174 128.51 31.2256 128.59 31.1097C128.671 30.9938 128.718 30.8582 128.727 30.7175C128.727 30.3683 128.513 30.1266 128.084 29.9655C127.575 29.7959 127.049 29.6832 126.515 29.6297C125.883 29.558 125.256 29.4459 124.637 29.294C124.036 29.1579 123.49 28.8444 123.069 28.3943C122.82 28.0884 122.638 27.7346 122.532 27.3549C122.426 26.9753 122.399 26.5778 122.453 26.1875C122.508 25.797 122.641 25.4218 122.846 25.0854C123.051 24.7489 123.323 24.4583 123.645 24.2315C124.612 23.615 125.746 23.3146 126.89 23.372C127.998 23.3346 129.095 23.609 130.055 24.1643C130.442 24.3839 130.775 24.687 131.03 25.0517C131.285 25.4164 131.456 25.8335 131.53 26.2726C131.53 26.5412 131.409 26.6755 131.168 26.6755H129.183C129.1 26.6804 129.016 26.66 128.945 26.6169C128.873 26.5738 128.816 26.5099 128.781 26.4337C128.648 26.1158 128.399 25.8609 128.084 25.722C127.728 25.5359 127.331 25.4434 126.93 25.4535C126.537 25.4321 126.145 25.5107 125.791 25.6817C125.666 25.7301 125.558 25.8147 125.482 25.9248C125.405 26.0349 125.363 26.1654 125.362 26.2995C125.37 26.4832 125.437 26.6592 125.553 26.8018C125.669 26.9444 125.827 27.046 126.005 27.0917C126.52 27.2862 127.056 27.4213 127.601 27.4946C128.228 27.5773 128.85 27.6939 129.465 27.8437C130.066 27.98 130.612 28.2933 131.034 28.7435C131.259 28.9915 131.433 29.2817 131.546 29.5975C131.659 29.9132 131.708 30.2483 131.691 30.5832C131.702 31.0474 131.593 31.5067 131.375 31.9162C131.156 32.3257 130.835 32.6714 130.444 32.9197C129.442 33.5639 128.268 33.887 127.078 33.8463Z" fill="black"/>
<path d="M145.864 33.1749C145.872 33.2225 145.869 33.2713 145.859 33.3182C145.847 33.3652 145.827 33.4092 145.797 33.448C145.769 33.4868 145.733 33.5195 145.691 33.544C145.65 33.5686 145.604 33.5846 145.556 33.5912C145.066 33.7512 144.555 33.8373 144.04 33.8463C143.531 33.8992 143.016 33.8194 142.547 33.6148C142.076 33.4101 141.667 33.0875 141.359 32.678C140.412 33.4935 139.186 33.912 137.939 33.8463C137.36 33.873 136.782 33.7781 136.242 33.5677C135.701 33.3572 135.211 33.0359 134.802 32.6243C134.395 32.1931 134.08 31.6842 133.875 31.1281C133.67 30.572 133.58 29.9802 133.608 29.388V24.1374C133.608 23.8823 133.729 23.748 133.984 23.748H136.236C136.491 23.748 136.612 23.8823 136.612 24.1374V28.9852C136.588 29.5892 136.793 30.1798 137.188 30.6369C137.386 30.8464 137.626 31.011 137.891 31.1199C138.157 31.2288 138.444 31.2793 138.73 31.268C139.024 31.2809 139.318 31.2354 139.594 31.1339C139.87 31.0325 140.124 30.8772 140.34 30.6772C140.543 30.4663 140.703 30.2158 140.806 29.9409C140.911 29.666 140.956 29.3727 140.943 29.0792V24.1374C140.943 23.8823 141.064 23.748 141.318 23.748H143.598C143.853 23.748 143.973 23.8823 143.973 24.1374V30.4623C143.973 30.986 144.201 31.2412 144.644 31.2412C144.852 31.2492 145.06 31.2267 145.261 31.174C145.312 31.1598 145.365 31.1572 145.416 31.1666C145.469 31.1759 145.517 31.1968 145.56 31.2279C145.603 31.2589 145.637 31.2992 145.663 31.3456C145.687 31.3921 145.701 31.4437 145.703 31.4963L145.864 33.1749Z" fill="black"/>
<path d="M167.171 33.1749C167.183 33.2229 167.185 33.2732 167.175 33.3218C167.164 33.3703 167.144 33.4162 167.115 33.4559C167.085 33.4957 167.048 33.5284 167.004 33.5518C166.961 33.5753 166.912 33.5887 166.863 33.5912C166.364 33.7535 165.845 33.8396 165.321 33.8463C164.523 33.8875 163.736 33.6607 163.081 33.2017C162.798 33.0051 162.569 32.7418 162.412 32.435C162.255 32.1281 162.176 31.7872 162.183 31.4426V28.2869C162.211 27.6847 162.01 27.0943 161.62 26.6352C161.432 26.4253 161.199 26.2598 160.94 26.1506C160.68 26.0416 160.4 25.9915 160.118 26.004C159.865 25.9945 159.612 26.0427 159.379 26.145C159.147 26.2473 158.942 26.4012 158.777 26.5949C158.423 27.0449 158.242 27.6072 158.267 28.1794V33.1346C158.267 33.3897 158.147 33.524 157.892 33.524H155.626C155.574 33.5306 155.52 33.525 155.47 33.5078C155.419 33.4904 155.374 33.462 155.336 33.4244C155.299 33.3869 155.271 33.3412 155.253 33.291C155.236 33.2408 155.23 33.1874 155.237 33.1346V28.2869C155.267 27.6913 155.08 27.105 154.714 26.6352C154.55 26.4378 154.345 26.2789 154.113 26.1699C153.883 26.0608 153.629 26.0041 153.373 26.004C153.1 25.993 152.827 26.0399 152.573 26.1418C152.318 26.2436 152.089 26.398 151.898 26.5949C151.515 27.0305 151.318 27.5996 151.348 28.1794V33.1346C151.355 33.1874 151.35 33.2408 151.332 33.291C151.315 33.3412 151.287 33.3869 151.249 33.4244C151.212 33.462 151.166 33.4904 151.116 33.5078C151.065 33.525 151.012 33.5306 150.96 33.524H148.774C148.519 33.524 148.398 33.3897 148.398 33.1346V26.8097C148.414 26.702 148.405 26.5922 148.37 26.4888C148.337 26.3855 148.279 26.2915 148.201 26.2146C148.125 26.1376 148.031 26.0797 147.928 26.0455C147.824 26.0113 147.715 26.0017 147.607 26.0174H147.165C146.87 26.0174 146.722 25.91 146.722 25.6952V24.1106C146.716 24.0126 146.742 23.9151 146.799 23.8345C146.855 23.7538 146.937 23.6948 147.031 23.6674C147.495 23.4986 147.985 23.4167 148.479 23.4257C148.952 23.3853 149.428 23.4798 149.851 23.6985C150.273 23.9171 150.624 24.2508 150.866 24.6612C151.318 24.2318 151.854 23.9004 152.44 23.6878C153.026 23.4753 153.649 23.3861 154.272 23.4257C154.876 23.3962 155.478 23.5097 156.031 23.757C156.583 24.0044 157.069 24.3785 157.45 24.8492C157.893 24.3661 158.439 23.988 159.047 23.7417C159.654 23.4956 160.308 23.3877 160.963 23.4257C161.547 23.3983 162.132 23.4927 162.679 23.7032C163.226 23.9134 163.724 24.2351 164.141 24.6477C164.548 25.0781 164.863 25.5869 165.069 26.1433C165.274 26.6995 165.365 27.2918 165.334 27.884V30.4757C165.334 30.986 165.562 31.2412 165.991 31.2412C166.199 31.2508 166.407 31.2283 166.608 31.174C166.886 31.174 167.033 31.2814 167.05 31.4963L167.171 33.1749Z" fill="black"/>
<path d="M9.93613 22.0023C10.9254 18.0203 13.2166 14.4842 16.4448 11.9571C19.673 9.42999 23.6527 8.05713 27.7501 8.05713C31.8475 8.05713 35.8272 9.42999 39.0554 11.9571C42.2837 14.4842 44.5748 18.0203 45.5641 22.0023H43.955C41.2406 21.9623 38.5818 22.7747 36.352 24.3254C36.2233 24.4188 36.0889 24.504 35.9498 24.5806H35.762C35.6228 24.504 35.4885 24.4188 35.3598 24.3254C33.1103 22.8106 30.4609 22.0015 27.7501 22.0015C25.0393 22.0015 22.39 22.8106 20.1404 24.3254C20.0117 24.4188 19.8774 24.504 19.7382 24.5806H19.5504C19.4113 24.504 19.2769 24.4188 19.1482 24.3254C16.9184 22.7747 14.2596 21.9623 11.5452 22.0023H9.93613ZM41.0586 30.422C41.8846 29.7778 42.9084 29.4408 43.955 29.4686H46.1139V25.158H43.955C42.1115 25.1357 40.3103 25.7103 38.8193 26.7963C37.9803 27.4158 36.9654 27.75 35.9229 27.75C34.8805 27.75 33.8656 27.4158 33.0266 26.7963C31.4978 25.7306 29.6798 25.1592 27.8172 25.1592C25.9545 25.1592 24.1365 25.7306 22.6077 26.7963C21.7687 27.4158 20.7538 27.75 19.7114 27.75C18.6689 27.75 17.654 27.4158 16.815 26.7963C15.3057 25.6964 13.4785 25.1211 11.6123 25.158H9.38635V29.4686H11.5452C12.5918 29.4408 13.6156 29.7778 14.4416 30.422C15.9675 31.4885 17.7835 32.0603 19.6443 32.0603C21.5051 32.0603 23.3211 31.4885 24.847 30.422C25.6741 29.7799 26.6971 29.4431 27.7434 29.4686C28.7904 29.4385 29.8148 29.7758 30.6398 30.422C32.1685 31.4878 33.9865 32.0591 35.8492 32.0591C37.7119 32.0591 39.5299 31.4878 41.0586 30.422ZM41.0586 38.13C41.8846 37.4858 42.9084 37.1488 43.955 37.1766H46.1139V32.866H43.955C42.1115 32.8437 40.3103 33.4183 38.8193 34.5043C37.9803 35.1238 36.9654 35.458 35.9229 35.458C34.8805 35.458 33.8656 35.1238 33.0266 34.5043C31.4978 33.4386 29.6798 32.8674 27.8172 32.8674C25.9545 32.8674 24.1365 33.4386 22.6077 34.5043C21.7687 35.1238 20.7538 35.458 19.7114 35.458C18.6689 35.458 17.654 35.1238 16.815 34.5043C15.3057 33.4045 13.4785 32.8291 11.6123 32.866H9.38635V37.1766H11.5452C12.5918 37.1488 13.6156 37.4858 14.4416 38.13C15.9675 39.1965 17.7835 39.7683 19.6443 39.7683C21.5051 39.7683 23.3211 39.1965 24.847 38.13C25.6741 37.4879 26.6971 37.1511 27.7434 37.1766C28.7904 37.1465 29.8148 37.4838 30.6398 38.13C32.1685 39.1958 33.9865 39.7671 35.8492 39.7671C37.7119 39.7671 39.5299 39.1958 41.0586 38.13Z" fill="#FF6500"/>
</svg>
